# xmcd
# Track frame offsets:
# 150
# 16832
# 30855
# 49002
# 65945
# 81050
# 94767
# 107522
# 129002
# 144390
# 166277
# 182472
# 200815
# 214227
# 228540
#
# Disc length: 3229 seconds
# Revision: 0
# Processed by: cddbd v1.4PL0 Copyright (c) Steve Scherf et al.
# Submitted via: VisiTrax 2.9.5.181 - For more info visit www.synapsa.com
#
DISCID=c10c9b0f
DTITLE=Various Artist - Line Dance 04 "Favourites" Vol. 04
DYEAR=1997
DGENRE=Country
TTITLE0=Capricorn - Thinkin' 'Bout You
TTITLE1=Fat cat Band - Run, Run
TTITLE2=Les Payne Posse - No Money
TTITLE3=Watermelon Henry - Burnin' Fire
TTITLE4=Big Sky - Nobody's Fool
TTITLE5=Big Sky - 50 Weeks Of The Year
TTITLE6=Fat cat Band - Loving You
TTITLE7=Les Spear - Shoot The Moon
TTITLE8=Big Sky - Tonoght I'm Gonna Kiss This Heartache Goodbye
TTITLE9=Les Payne Posse - Helping Hand
TTITLE10=Corridor 38 - Union Street
TTITLE11=Aaron woolley - Boot Scootin' Baby
TTITLE12=Capricorn - Here, There and Everywhere
TTITLE13=J.C. Band - One More Drink
TTITLE14=Les Spear - Born To Love You
EXTD=
EXTT0=
EXTT1=
EXTT2=
EXTT3=
EXTT4=
EXTT5=
EXTT6=
EXTT7=
EXTT8=
EXTT9=
EXTT10=
EXTT11=
EXTT12=
EXTT13=
EXTT14=
PLAYORDER=
